#!OML:ASF F:\VICON\USERDATA\Patient Classification 1\PLAYGROUND\JustinFriday\JustinFriday.ASF
:FULLY-SPECIFIED
:DEGREES
2174
root 12.9589 27.2636 42.1892 203.134 -1.2477 -174.981
lowerback 41.083 -6.74938 5.49597
upperback -4.67814 -6.26907 -0.144286
thorax -27.7014 -3.01462 0.598719
lowerneck -14.0352 -13.7077 -32.8861
upperneck 17.114 -15.5167 19.021
head 12.2525 -7.65588 9.82958
rclavicle 5.1684e-014 1.59028e-014
rhumerus -31.5446 45.8931 -97.6993
rradius 38.7318
rwrist 18.6984
rhand -45.1642 -6.69097
rfingers 7.12502
rthumb -17.9417 -35.8834
lclavicle 5.1684e-014 1.59028e-014
lhumerus -34.8952 -26.0721 82.8128
lradius 39.1071
lwrist -23.8622
lhand -38.7281 -56.2498
lfingers 7.12502
lthumb -11.7414 -26.5989
rfemur -21.9455 0.000903822 27.6039
rtibia 31.5873
rfoot -32.6384 -7.41441
rtoes 8.52264
lfemur -21.732 5.28395 -15.5134
ltibia 32.0285
lfoot -31.4302 -4.66874
ltoes 6.4892
2175
root 12.9587 27.2625 42.1826 203.014 -1.35059 -175.248
lowerback 41.1763 -6.87675 5.42676
upperback -4.64772 -6.48758 -0.208392
thorax -27.7121 -3.08414 0.694227
lowerneck -14.2363 -13.739 -33.0196
upperneck 17.3054 -15.4985 19.105
head 12.3828 -7.64667 9.89663
rclavicle 2.14687e-014 2.70347e-014
rhumerus -31.5004 45.9862 -97.8229
rradius 38.6007
rwrist 18.747
rhand -45.4038 -6.32783
rfingers 7.12502
rthumb -18.1722 -35.499
lclavicle 2.14687e-014 2.70347e-014
lhumerus -35.0376 -25.9442 82.7049
lradius 39.4279
lwrist -23.1861
lhand -37.8665 -56.8944
lfingers 7.12502
lthumb -10.9105 -27.1979
rfemur -21.8381 -0.00495772 27.3514
rtibia 31.6923
rfoot -32.6143 -7.69884
rtoes 8.48299
lfemur -21.6314 5.15057 -15.7518
ltibia 32.0933
lfoot -31.5081 -4.68769
ltoes 6.1014
2176
root 12.9627 27.2632 42.1721 203.218 -0.929246 -175.145
lowerback 40.9064 -6.79643 5.05087
upperback -4.63676 -6.31241 -0.180042
thorax -27.5271 -2.85328 0.741661
lowerneck -14.4932 -13.7941 -32.9749
upperneck 17.5325 -15.497 19.016
head 12.5059 -7.64449 9.85426
rclavicle 3.65764e-014 -9.54166e-015
rhumerus -31.4607 46.0912 -97.8597
rradius 38.6091
rwrist 18.7352
rhand -45.1551 -5.80757
rfingers 7.12502
rthumb -17.9329 -35.0008
lclavicle 3.65764e-014 -9.54166e-015
lhumerus -35.109 -25.9645 82.6905
lradius 39.5722
lwrist -22.8596
lhand -37.6352 -57.0355
lfingers 7.12502
lthumb -10.6874 -27.3274
rfemur -22.0769 0.30857 27.3034
rtibia 31.7851
rfoot -32.5809 -7.51077
rtoes 8.66803
lfemur -21.8031 5.42157 -15.8156
ltibia 32.1822
lfoot -31.4878 -4.57151
ltoes 6.41897
2177
root 12.9676 27.2582 42.1685 203.138 -0.731586 -174.956
lowerback 40.9855 -6.68255 4.94846
upperback -4.60365 -6.19035 -0.138816
thorax -27.4872 -2.78941 0.774095
lowerneck -14.5483 -13.7431 -32.7685
upperneck 17.5785 -15.414 18.8477
head 12.4699 -7.6051 9.76825
rclavicle 2.14687e-014 9.54166e-015
rhumerus -31.4234 46.181 -97.8583
rradius 38.6283
rwrist 18.6892
rhand -45.125 -5.90586
rfingers 7.12502
rthumb -17.9039 -35.1017
lclavicle 2.14687e-014 9.54166e-015
lhumerus -35.2181 -26.2129 82.8095
lradius 39.6847
lwrist -22.6794
lhand -37.9956 -56.6799
lfingers 7.12502
lthumb -11.035 -26.99
rfemur -22.0275 0.431765 27.4509
rtibia 31.8812
rfoot -32.5536 -7.25645
rtoes 9.12566
lfemur -21.6852 5.64734 -15.6602
ltibia 32.2505
lfoot -31.4506 -4.64335
ltoes 6.9281
2178
root 12.9677 27.2575 42.1653 203.108 -0.892496 -174.864
lowerback 40.9634 -6.77812 5.12091
upperback -4.58116 -6.21676 -0.107144
thorax -27.4557 -2.81957 0.734037
lowerneck -14.5622 -13.636 -32.5563
upperneck 17.5375 -15.2659 18.7111
head 12.376 -7.53285 9.70859
rclavicle -1.59028e-015 -2.38542e-014
rhumerus -31.3694 46.2868 -97.8648
rradius 38.6076
rwrist 18.5081
rhand -44.648 -8.79001
rfingers 7.12502
rthumb -17.4449 -38.0272
lclavicle -1.59028e-015 -2.38542e-014
lhumerus -35.2 -26.1693 82.7982
lradius 39.6929
lwrist -22.4835
lhand -37.7281 -56.9119
lfingers 7.12502
lthumb -10.777 -27.2083
rfemur -22.0422 0.447617 27.6012
rtibia 31.9819
rfoot -32.5863 -7.24872
rtoes 9.64919
lfemur -21.6796 5.3208 -15.4682
ltibia 32.2837
lfoot -31.3396 -4.58192
ltoes 7.02831
2179
root 12.9665 27.26 42.1548 203.116 -0.91173 -174.879
lowerback 40.8324 -6.81109 5.16597
upperback -4.55232 -6.24792 -0.112843
thorax -27.3599 -2.84071 0.711589
lowerneck -14.6374 -13.541 -32.4331
upperneck 17.5679 -15.117 18.6453
head 12.3387 -7.46021 9.69657
rclavicle 2.38542e-015 -5.24792e-014
rhumerus -31.315 46.3925 -97.8743
rradius 38.5694
rwrist 18.3418
rhand -45.3139 -5.79436
rfingers 7.12502
rthumb -18.0857 -34.9735
lclavicle 2.38542e-015 -5.24792e-014
lhumerus -35.1961 -25.9663 82.7735
lradius 39.6926
lwrist -22.4069
lhand -37.4123 -57.1441
lfingers 7.12502
lthumb -10.4724 -27.4249
rfemur -22.0623 0.493119 27.5993
rtibia 32.0852
rfoot -32.7132 -7.22897
rtoes 10.0349
lfemur -21.6613 5.21818 -15.4439
ltibia 32.2781
lfoot -31.2339 -4.63205
ltoes 6.49879
2180
root 12.9638 27.2622 42.1504 203.05 -1.00589 -175.07
lowerback 40.8134 -6.90094 5.16828
upperback -4.54004 -6.38095 -0.157635
thorax -27.3473 -2.89141 0.733705
lowerneck -14.6608 -13.417 -32.4778
upperneck 17.5492 -14.9507 18.782
head 12.3059 -7.37645 9.8047
rclavicle -2.62396e-014 -1.59028e-015
rhumerus -31.2893 46.5208 -97.9292
rradius 38.4513
rwrist 18.2321
rhand -44.5886 -7.85779
rfingers 7.12502
rthumb -17.3877 -37.1001
lclavicle -2.62396e-014 -1.59028e-015
lhumerus -35.1599 -25.887 82.8383
lradius 39.645
lwrist -22.2233
lhand -37.2061 -57.0731
lfingers 7.12502
lthumb -10.2734 -27.344
rfemur -22.0395 0.383865 27.4302
rtibia 32.1767
rfoot -32.7954 -7.23819
rtoes 10.1912
lfemur -21.5792 4.82513 -15.581
ltibia 32.247
lfoot -31.3026 -4.39441
ltoes 5.67814
2181
root 12.9646 27.2605 42.1437 202.985 -0.999374 -175.062
lowerback 40.7847 -6.89674 5.16438
upperback -4.51637 -6.37551 -0.152287
thorax -27.2963 -2.88874 0.735032
lowerneck -14.7328 -13.2492 -32.4226
upperneck 17.5125 -14.7192 18.8844
head 12.2422 -7.25614 9.89529
rclavicle -6.59965e-014 -3.49861e-014
rhumerus -31.2701 46.6311 -97.9383
rradius 38.3796
rwrist 18.0769
rhand -45.4277 -5.80658
rfingers 7.12502
rthumb -18.1951 -34.9756
lclavicle -6.59965e-014 -3.49861e-014
lhumerus -35.2569 -26.1127 82.9039
lradius 39.7492
lwrist -21.9718
lhand -37.2153 -57.0207
lfingers 7.12502
lthumb -10.2824 -27.2921
rfemur -21.9705 0.340038 27.4582
rtibia 32.2203
rfoot -32.8938 -7.21167
rtoes 9.97149
lfemur -21.495 4.92475 -15.5579
ltibia 32.2484
lfoot -31.3844 -4.47074
ltoes 5.48378
2182
root 12.9609 27.2614 42.1402 202.815 -1.25027 -175.097
lowerback 40.8807 -6.8893 5.48803
upperback -4.47805 -6.49385 -0.173189
thorax -27.3171 -3.10501 0.67775
lowerneck -14.9645 -13.112 -32.0462
upperneck 17.7046 -14.481 18.6164
head 12.227 -7.13962 9.77834
rclavicle -9.85972e-014 -2.54444e-014
rhumerus -31.2433 46.6263 -97.8649
rradius 38.4311
rwrist 18.0763
rhand -46.0728 -4.79751
rfingers 7.12502
rthumb -18.8157 -33.9075
lclavicle -9.85972e-014 -2.54444e-014
lhumerus -35.1045 -26.0522 82.9648
lradius 39.5321
lwrist -22.2484
lhand -37.4727 -56.9258
lfingers 7.12502
lthumb -10.5306 -27.2096
rfemur -21.7936 0.12954 27.4931
rtibia 32.2603
rfoot -33.0128 -7.24416
rtoes 9.89809
lfemur -21.354 4.72142 -15.5108
ltibia 32.2808
lfoot -31.3663 -4.51265
ltoes 6.08794
